<svg width="1024" height="1024" viewBox="0 0 1024 1024" fill="none" xmlns="http://www.w3.org/2000/svg">
  <rect width="1024" height="1024" rx="220" fill="#09090B"/>
  <path d="M190 640C158 555 166 461 214 383C290 260 445 214 582 260C673 291 740 357 770 445H615C593 412 558 389 514 381C448 369 383 397 350 452C315 510 326 583 378 630C426 673 497 679 550 646C570 634 587 618 600 599H774C746 685 682 754 592 789C429 853 253 808 190 640Z" fill="#F97316"/>
  <path d="M679 188L424 528H586L483 836L759 462H595L679 188Z" fill="#14B8A6"/>
  <path d="M350 452C383 397 448 369 514 381C558 389 593 412 615 445H770C740 357 673 291 582 260C445 214 290 260 214 383C166 461 158 555 190 640C253 808 429 853 592 789C682 754 746 685 774 599H600C587 618 570 634 550 646C497 679 426 673 378 630C326 583 315 510 350 452Z" fill="#F97316" fill-opacity=".92"/>
  <path d="M679 188L424 528H586L483 836L759 462H595L679 188Z" fill="#14B8A6"/>
</svg>
