<svg width="1024" height="1024" viewBox="0 0 1024 1024" fill="none" xmlns="http://www.w3.org/2000/svg">
  <rect width="1024" height="1024" rx="220" fill="#09090B"/>
  <path d="M190 640C158 555 166 461 214 383C290 260 445 214 582 260C673 291 740 357 770 445H615C593 412 558 389 514 381C448 369 383 397 350 452C315 510 326 583 378 630C426 673 497 679 550 646C570 634 587 618 600 599H774C746 685 682 754 592 789C429 853 253 808 190 640Z" fill="#F97316"/>
  <path d="M679 188L424 528H586L483 836L759 462H595L679 188Z" fill="#14B8A6"/>
</svg>
